# xmcd CD database file
#
# Track frame offsets:
#	150
#	13119
#	27063
#	39969
#	52926
#	65614
#	80482
#	94815
#	107230
#	122592
#	134787
#	148357
#	163045
#	176897
#	189660
#	202420
#
# Disc length: 2874 seconds
#
# Revision: 4
# Processed by: cddbd v1.5.2PL0 Copyright (c) Steve Scherf et al.
# Submitted via: CDex 1.70beta2
#
DISCID=f00b3810
DTITLE=Big Bill Broonzy - The Ultimate Jazz Archive Set 11
DYEAR=2000
DGENRE=Blues
TTITLE0=Too Too Train Blues
TTITLE1=Worrying You Out Of My Mind
TTITLE2=How You Want It Done
TTITLE3=Bull Cow Blues
TTITLE4=Long Tall Mama
TTITLE5=Good Jelly
TTITLE6=Rising Sun Shine On
TTITLE7=Good Liquor Gonna Carry Me Down
TTITLE8=Friendless Blues
TTITLE9=Mississippi River Blues
TTITLE10=Come Home Early
TTITLE11=Southern Flood Blues
TTITLE12=Horny Frog
TTITLE13=It's Your Time Now
TTITLE14=W.P.A. Blues
TTITLE15=Big Billy Blues
EXTD=Year: 2000 Id3g:   0 YEAR: 2000
EXTT0=
EXTT1=
EXTT2=
EXTT3=
EXTT4=
EXTT5=
EXTT6=
EXTT7=
EXTT8=
EXTT9=
EXTT10=
EXTT11=
EXTT12=
EXTT13=
EXTT14=
EXTT15=
PLAYORDER=
